<svg width="18" height="21" viewBox="0 0 18 21" fill="none" xmlns="http://www.w3.org/2000/svg">
<path d="M17.8572 16.9714V17.9143H0.885742V16.9714L2.77146 15.0857V9.42859C2.77146 6.50573 4.68546 3.93173 7.48574 3.10201V2.82859C7.48574 2.32846 7.68442 1.84882 8.03806 1.49518C8.3917 1.14154 8.87133 0.942871 9.37146 0.942871C9.87158 0.942871 10.3512 1.14154 10.7049 1.49518C11.0585 1.84882 11.2572 2.32846 11.2572 2.82859V3.10201C14.0575 3.93173 15.9715 6.50573 15.9715 9.42859V15.0857L17.8572 16.9714ZM11.2572 18.8572C11.2572 19.3573 11.0585 19.8369 10.7049 20.1906C10.3512 20.5442 9.87158 20.7429 9.37146 20.7429C8.87133 20.7429 8.3917 20.5442 8.03806 20.1906C7.68442 19.8369 7.48574 19.3573 7.48574 18.8572" fill="#003FB6"/>
</svg>
