<svg width="16" height="16" viewBox="0 0 16 16" fill="none" xmlns="http://www.w3.org/2000/svg">
<g id="Leave Management">
<path id="Vector" fill-rule="evenodd" clip-rule="evenodd" d="M11.16 4.28015C11.0863 4.21149 11.0272 4.12869 10.9862 4.03669C10.9452 3.94469 10.9232 3.84538 10.9214 3.74468C10.9196 3.64397 10.9382 3.54394 10.9759 3.45056C11.0136 3.35717 11.0697 3.27233 11.141 3.20112C11.2122 3.1299 11.297 3.07375 11.3904 3.03603C11.4838 2.99831 11.5838 2.97979 11.6845 2.98156C11.7852 2.98334 11.8845 3.00538 11.9765 3.04637C12.0685 3.08736 12.1513 3.14647 12.22 3.22015L15.47 6.47015L16 7.00015L15.47 7.53015L12.22 10.7802C12.0778 10.9126 11.8898 10.9848 11.6955 10.9813C11.5012 10.9779 11.3158 10.8992 11.1784 10.7618C11.041 10.6244 10.9623 10.439 10.9588 10.2447C10.9554 10.0504 11.0275 9.86233 11.16 9.72015L13.13 7.75015H3.25C3.02019 7.75015 2.79262 7.79542 2.5803 7.88336C2.36798 7.97131 2.17507 8.10021 2.01256 8.26272C1.85006 8.42522 1.72116 8.61814 1.63321 8.83046C1.54527 9.04278 1.5 9.27034 1.5 9.50015C1.5 9.72997 1.54527 9.95753 1.63321 10.1698C1.72116 10.3822 1.85006 10.5751 2.01256 10.7376C2.17507 10.9001 2.36798 11.029 2.5803 11.1169C2.79262 11.2049 3.02019 11.2502 3.25 11.2502H5.25C5.44891 11.2502 5.63968 11.3292 5.78033 11.4698C5.92098 11.6105 6 11.8012 6 12.0002C6 12.1991 5.92098 12.3898 5.78033 12.5305C5.63968 12.6711 5.44891 12.7502 5.25 12.7502H3.25C2.38805 12.7502 1.5614 12.4077 0.951903 11.7983C0.34241 11.1888 0 10.3621 0 9.50015C0 8.6382 0.34241 7.81155 0.951903 7.20206C1.5614 6.59256 2.38805 6.25015 3.25 6.25015H13.13L11.16 4.28015Z" fill="#D70D00"/>
</g>
</svg>
